<svg width="40" height="40" viewBox="0 0 40 40" fill="none" xmlns="http://www.w3.org/2000/svg">
<g clip-path="url(#clip0_23_10)">
<path d="M20 0C8.95434 0 0 8.95434 0 20C0 31.0457 8.95434 40 20 40C31.0456 40 40 31.0456 40 20C40 8.95434 31.0456 0 20 0ZM20 35.6522C11.3543 35.6522 4.34783 28.6435 4.34783 20C4.34783 11.3565 11.3543 4.34783 20 4.34783C28.6456 4.34783 35.6522 11.3565 35.6522 20C35.6522 28.6435 28.6456 35.6522 20 35.6522ZM23.9131 11.6304H16.0869V20.5217H11.1957L20 28.8043L28.8043 20.5217H23.913L23.9131 11.6304Z" fill="#D30E15"/>
</g>
<defs>
<clipPath id="clip0_23_10">
<rect width="40" height="40" fill="white"/>
</clipPath>
</defs>
</svg>
