<svg width="14" height="14" viewBox="0 0 14 14" fill="none" xmlns="http://www.w3.org/2000/svg">
<path d="M6.99999 3.84461C6.37588 3.84461 5.76579 4.02968 5.24686 4.37641C4.72793 4.72315 4.32348 5.21598 4.08464 5.79258C3.84581 6.36919 3.78331 7.00366 3.90507 7.61578C4.02683 8.2279 4.32737 8.79016 4.76868 9.23148C5.20999 9.67279 5.77226 9.97333 6.38438 10.0951C6.99649 10.2168 7.63097 10.1544 8.20757 9.91551C8.78418 9.67668 9.27701 9.27222 9.62374 8.75329C9.97048 8.23437 10.1556 7.62427 10.1556 7.00016C10.1556 6.16326 9.82309 5.36063 9.23131 4.76885C8.63953 4.17707 7.8369 3.84461 6.99999 3.84461ZM6.99999 9.40016C6.52532 9.40016 6.0613 9.2594 5.66663 8.99569C5.27195 8.73197 4.96433 8.35714 4.78268 7.9186C4.60103 7.48006 4.55351 6.9975 4.64611 6.53195C4.73871 6.06639 4.96729 5.63875 5.30294 5.30311C5.63858 4.96746 6.06622 4.73888 6.53178 4.64628C6.99733 4.55367 7.47989 4.6012 7.91843 4.78285C8.35698 4.9645 8.73181 5.27212 8.99552 5.66679C9.25924 6.06147 9.39999 6.52549 9.39999 7.00016C9.39999 7.63668 9.14714 8.24713 8.69705 8.69722C8.24696 9.14731 7.63651 9.40016 6.99999 9.40016ZM10.0555 0.233496H3.94444C2.96019 0.233496 2.01626 0.624487 1.32029 1.32046C0.624319 2.01642 0.233328 2.96036 0.233328 3.94461V10.0557C0.233328 10.5431 0.329319 11.0256 0.51582 11.4759C0.70232 11.9262 0.975679 12.3353 1.32029 12.6799C2.01626 13.3758 2.96019 13.7668 3.94444 13.7668H10.0555C10.5429 13.7668 11.0255 13.6708 11.4757 13.4843C11.926 13.2978 12.3351 13.0245 12.6797 12.6799C13.0243 12.3353 13.2977 11.9262 13.4842 11.4759C13.6707 11.0256 13.7667 10.5431 13.7667 10.0557V3.94461C13.7667 3.45726 13.6707 2.97468 13.4842 2.52443C13.2977 2.07417 13.0243 1.66506 12.6797 1.32046C12.3351 0.975847 11.926 0.702488 11.4757 0.515988C11.0255 0.329487 10.5429 0.233496 10.0555 0.233496ZM13.0111 10.0557C13.0111 10.8396 12.6997 11.5913 12.1454 12.1456C11.5912 12.6999 10.8394 13.0113 10.0555 13.0113H3.94444C3.16058 13.0113 2.40882 12.6999 1.85455 12.1456C1.30027 11.5913 0.988884 10.8396 0.988884 10.0557V3.94461C0.988884 3.16075 1.30027 2.40899 1.85455 1.85471C2.40882 1.30044 3.16058 0.989052 3.94444 0.989052H10.0555C10.8394 0.989052 11.5912 1.30044 12.1454 1.85471C12.6997 2.40899 13.0111 3.16075 13.0111 3.94461V10.0557ZM11.1562 3.75326C11.2282 3.64545 11.2667 3.51871 11.2667 3.38905C11.2667 3.21519 11.1976 3.04844 11.0747 2.9255C10.9517 2.80256 10.785 2.7335 10.6111 2.7335C10.4814 2.7335 10.3547 2.77194 10.2469 2.84398C10.1391 2.91601 10.0551 3.01839 10.0055 3.13818C9.95583 3.25797 9.94285 3.38978 9.96815 3.51694C9.99344 3.64411 10.0559 3.76092 10.1476 3.8526C10.2392 3.94428 10.356 4.00672 10.4832 4.03201C10.6104 4.05731 10.7422 4.04432 10.862 3.99471C10.9818 3.94509 11.0841 3.86106 11.1562 3.75326Z" fill="#D30E15" stroke="#D30E15" stroke-width="0.2"/>
</svg>
