<svg width="28" height="28" viewBox="0 0 28 28" fill="none" xmlns="http://www.w3.org/2000/svg">
<path d="M14 15.875C12.9681 15.875 12.125 15.0319 12.125 14C12.125 12.9681 12.9681 12.125 14 12.125C15.0319 12.125 15.875 12.9681 15.875 14C15.875 15.0319 15.0319 15.875 14 15.875ZM14 12.375C13.1019 12.375 12.375 13.1019 12.375 14C12.375 14.8981 13.1019 15.625 14 15.625C14.8981 15.625 15.625 14.8981 15.625 14C15.625 13.1019 14.8981 12.375 14 12.375Z" fill="white" stroke="white" stroke-width="0.5"/>
<mask id="path-2-inside-1_1_401" fill="white">
<path d="M16.5 11.75C16.435 11.75 16.37 11.735 16.31 11.71C16.25 11.685 16.195 11.65 16.145 11.605C16.1 11.555 16.06 11.5 16.035 11.44C16.01 11.38 16 11.315 16 11.25C16 11.185 16.01 11.12 16.035 11.06C16.065 10.995 16.1 10.945 16.145 10.895C16.17 10.875 16.195 10.85 16.22 10.835C16.25 10.815 16.28 10.8 16.31 10.79C16.34 10.775 16.37 10.765 16.405 10.76C16.565 10.725 16.735 10.78 16.855 10.895C16.9 10.945 16.935 10.995 16.96 11.06C16.985 11.12 17 11.185 17 11.25C17 11.315 16.985 11.38 16.96 11.44C16.935 11.5 16.9 11.555 16.855 11.605C16.805 11.65 16.75 11.685 16.69 11.71C16.63 11.735 16.565 11.75 16.5 11.75Z"/>
</mask>
<path d="M16.5 11.75C16.435 11.75 16.37 11.735 16.31 11.71C16.25 11.685 16.195 11.65 16.145 11.605C16.1 11.555 16.06 11.5 16.035 11.44C16.01 11.38 16 11.315 16 11.25C16 11.185 16.01 11.12 16.035 11.06C16.065 10.995 16.1 10.945 16.145 10.895C16.17 10.875 16.195 10.85 16.22 10.835C16.25 10.815 16.28 10.8 16.31 10.79C16.34 10.775 16.37 10.765 16.405 10.76C16.565 10.725 16.735 10.78 16.855 10.895C16.9 10.945 16.935 10.995 16.96 11.06C16.985 11.12 17 11.185 17 11.25C17 11.315 16.985 11.38 16.96 11.44C16.935 11.5 16.9 11.555 16.855 11.605C16.805 11.65 16.75 11.685 16.69 11.71C16.63 11.735 16.565 11.75 16.5 11.75Z" fill="white"/>
<path d="M16.145 11.605L15.4017 12.2739L15.4369 12.313L15.476 12.3482L16.145 11.605ZM16.035 11.06L15.127 10.6409L15.1192 10.658L15.1119 10.6753L16.035 11.06ZM16.145 10.895L15.5203 10.1141L15.4564 10.1652L15.4017 10.226L16.145 10.895ZM16.22 10.835L16.7345 11.6924L16.7549 11.6802L16.7747 11.667L16.22 10.835ZM16.31 10.79L16.6262 11.7386L16.6936 11.7162L16.7572 11.6844L16.31 10.79ZM16.405 10.76L16.5464 11.7499L16.5828 11.7447L16.6187 11.7369L16.405 10.76ZM16.855 10.895L17.5983 10.226L17.5736 10.1985L17.5469 10.173L16.855 10.895ZM16.96 11.06L16.0267 11.4189L16.0316 11.4318L16.0369 11.4446L16.96 11.06ZM16.855 11.605L17.524 12.3482L17.5631 12.313L17.5983 12.2739L16.855 11.605ZM16.5 10.75C16.5867 10.75 16.6523 10.7693 16.6946 10.7869L15.9254 12.633C16.0877 12.7006 16.2833 12.75 16.5 12.75V10.75ZM16.6946 10.7869C16.7425 10.8068 16.783 10.8338 16.814 10.8617L15.476 12.3482C15.607 12.4661 15.7575 12.5631 15.9254 12.633L16.6946 10.7869ZM16.8883 10.936C16.8885 10.9362 16.8968 10.9453 16.9087 10.9629C16.9207 10.9804 16.9397 11.0113 16.9581 11.0553L15.1119 11.8246C15.1965 12.0277 15.3156 12.1783 15.4017 12.2739L16.8883 10.936ZM16.9581 11.0553C16.9951 11.1441 17 11.2156 17 11.25H15C15 11.4143 15.0249 11.6158 15.1119 11.8246L16.9581 11.0553ZM17 11.25C17 11.2843 16.9951 11.3558 16.9581 11.4446L15.1119 10.6753C15.0249 10.8841 15 11.0856 15 11.25H17ZM16.943 11.479C16.9362 11.4937 16.9263 11.512 16.9134 11.531C16.901 11.5494 16.8909 11.561 16.8883 11.5639L15.4017 10.226C15.2996 10.3394 15.2049 10.4721 15.127 10.6409L16.943 11.479ZM16.7697 11.6758C16.7907 11.659 16.8081 11.6441 16.8169 11.6365C16.8208 11.6331 16.8264 11.6283 16.8276 11.6272C16.83 11.6251 16.8305 11.6247 16.8301 11.625C16.83 11.6251 16.8212 11.6326 16.8076 11.643C16.7941 11.6533 16.769 11.6718 16.7345 11.6924L15.7055 9.97746C15.6585 10.0056 15.6209 10.0328 15.5949 10.0526C15.5688 10.0726 15.5475 10.0904 15.5349 10.1011C15.5283 10.1067 15.5225 10.1118 15.5186 10.1151C15.5136 10.1194 15.513 10.12 15.5106 10.122C15.5069 10.1252 15.5118 10.1209 15.5203 10.1141L16.7697 11.6758ZM16.7747 11.667C16.7409 11.6895 16.6914 11.7169 16.6262 11.7386L15.9938 9.84127C15.8686 9.88298 15.7591 9.94036 15.6653 10.0029L16.7747 11.667ZM16.7572 11.6844C16.7318 11.6971 16.6992 11.7112 16.6604 11.7236C16.6213 11.7361 16.5829 11.7447 16.5464 11.7499L16.2636 9.77C16.1131 9.7915 15.9804 9.83674 15.8628 9.89552L16.7572 11.6844ZM16.6187 11.7369C16.42 11.7803 16.258 11.7079 16.1631 11.6169L17.5469 10.173C17.212 9.85198 16.71 9.66959 16.1913 9.78305L16.6187 11.7369ZM16.1117 11.5639C16.1097 11.5617 16.0951 11.5453 16.077 11.5175C16.0578 11.488 16.0403 11.4544 16.0267 11.4189L17.8933 10.701C17.8122 10.49 17.6986 10.3374 17.5983 10.226L16.1117 11.5639ZM16.0369 11.4446C16.0193 11.4023 16 11.3367 16 11.25H18C18 11.0333 17.9507 10.8376 17.8831 10.6753L16.0369 11.4446ZM16 11.25C16 11.1633 16.0193 11.0976 16.0369 11.0553L17.8831 11.8246C17.9507 11.6623 18 11.4667 18 11.25H16ZM16.0369 11.0553C16.0569 11.0075 16.0838 10.967 16.1117 10.936L17.5983 12.2739C17.7162 12.1429 17.8131 11.9924 17.8831 11.8246L16.0369 11.0553ZM16.186 10.8617C16.217 10.8338 16.2575 10.8068 16.3054 10.7869L17.0746 12.633C17.2425 12.5631 17.393 12.4661 17.524 12.3482L16.186 10.8617ZM16.3054 10.7869C16.3477 10.7693 16.4133 10.75 16.5 10.75V12.75C16.7167 12.75 16.9123 12.7006 17.0746 12.633L16.3054 10.7869Z" fill="white" mask="url(#path-2-inside-1_1_401)"/>
<rect x="8.5" y="8.5" width="11" height="11" rx="3.5" stroke="white"/>
<circle cx="14" cy="14" r="13.5" stroke="white"/>
</svg>
