<svg width="28" height="28" viewBox="0 0 28 28" fill="none" xmlns="http://www.w3.org/2000/svg">
<path d="M13.0385 12.725V13.757L13.8483 13.1174C14.4657 12.6299 15.2552 12.358 16.0764 12.3571C16.9949 12.3598 17.8683 12.7002 18.5074 13.2936C19.1452 13.8859 19.4972 14.6802 19.5 15.5007V19.3571C19.5 19.3826 19.4895 19.4152 19.457 19.4453C19.4233 19.4766 19.3702 19.5 19.3077 19.5C19.2452 19.5 19.1921 19.4766 19.1584 19.4453C19.1259 19.4152 19.1154 19.3826 19.1154 19.3571V15.5C19.1154 14.7298 18.7855 13.9993 18.2121 13.4669C17.6399 12.9355 16.8713 12.6429 16.0769 12.6429C15.2825 12.6429 14.5139 12.9355 13.9417 13.4669C13.3683 13.9993 13.0385 14.7298 13.0385 15.5V19.3571C13.0385 19.3826 13.0279 19.4152 12.9955 19.4453C12.9618 19.4766 12.9086 19.5 12.8462 19.5C12.7837 19.5 12.7306 19.4766 12.6968 19.4453C12.6644 19.4152 12.6538 19.3826 12.6538 19.3571V12.5C12.6538 12.4746 12.6644 12.442 12.6968 12.4118C12.7305 12.3805 12.7837 12.3571 12.8462 12.3571C12.9086 12.3571 12.9618 12.3805 12.9955 12.4118C13.0279 12.442 13.0385 12.4746 13.0385 12.5V12.725ZM9.41591 9.59463L9.5954 10.0613L9.41591 9.59463C9.29183 9.64235 9.15342 9.65531 9.01956 9.63059C8.88577 9.60588 8.76757 9.54565 8.67818 9.46265C8.58918 9.38001 8.53328 9.27935 8.51108 9.17572C8.48896 9.07247 8.49991 8.96498 8.54446 8.8651C8.58927 8.76465 8.66793 8.67274 8.77641 8.60543C8.88519 8.53794 9.01663 8.5 9.15385 8.5C9.33872 8.5 9.50925 8.56854 9.62951 8.68021C9.74852 8.79072 9.80769 8.93234 9.80769 9.07143C9.80769 9.17583 9.77455 9.2813 9.70739 9.37464C9.63984 9.46851 9.53981 9.54697 9.41591 9.59463ZM9.34615 12.5V19.3571C9.34615 19.3826 9.33561 19.4152 9.30316 19.4453C9.26945 19.4766 9.21631 19.5 9.15385 19.5C9.09138 19.5 9.03824 19.4766 9.00454 19.4453C8.97208 19.4152 8.96154 19.3826 8.96154 19.3571V12.5C8.96154 12.4746 8.97208 12.442 9.00454 12.4118C9.03824 12.3805 9.09138 12.3571 9.15385 12.3571C9.21631 12.3571 9.26945 12.3805 9.30316 12.4118C9.33561 12.442 9.34615 12.4746 9.34615 12.5Z" fill="#CCCCCC" stroke="white"/>
<circle cx="14" cy="14" r="13.5" stroke="white"/>
</svg>
