<svg width="28" height="28" viewBox="0 0 28 28" fill="none" xmlns="http://www.w3.org/2000/svg">
<path d="M13.1101 15.9375C12.7726 17.5887 12.3623 19.1727 11.1393 20.0007C10.7635 17.5047 11.6939 15.6279 12.1254 13.6371C11.3895 12.4803 12.214 10.1499 13.7665 10.7247C15.679 11.4303 12.1121 15.0279 14.5077 15.4767C17.0065 15.9471 18.0283 11.4279 16.4771 9.9567C14.2377 7.8351 9.95611 9.9087 10.4829 12.9471C10.6113 13.6911 11.4332 13.9155 10.8111 14.9403C9.37773 14.6439 8.95023 13.5879 9.00449 12.1803C9.09317 9.8763 11.2214 8.2647 13.3576 8.0403C16.0575 7.7583 18.5908 8.9667 18.9415 11.3379C19.3346 14.0139 17.7225 16.9131 14.8346 16.7043C14.0537 16.6479 13.7229 16.2843 13.1101 15.9363V15.9375Z" fill="white"/>
<circle cx="14" cy="14" r="13.5" stroke="white"/>
</svg>
