<svg width="64" height="64" viewBox="0 0 64 64" fill="none" xmlns="http://www.w3.org/2000/svg">
<path d="M0 3.53067C0 1.58222 1.58222 0 3.53067 0H60.4693C62.4178 0 64 1.58222 64 3.53067V60.4693C63.9991 61.4054 63.6268 62.3029 62.9649 62.9649C62.3029 63.6268 61.4054 63.9991 60.4693 64H3.53067C2.59428 64 1.69624 63.628 1.03411 62.9659C0.37198 62.3038 0 61.4057 0 60.4693V3.53067ZM27.1004 19.2533C26.8865 19.1106 26.6378 19.0285 26.3808 19.0159C26.1239 19.0033 25.8683 19.0606 25.6414 19.1817C25.4145 19.3029 25.2246 19.4833 25.0921 19.7038C24.9596 19.9242 24.8894 20.1765 24.8889 20.4338V43.5662C24.8894 43.8235 24.9596 44.0758 25.0921 44.2962C25.2246 44.5167 25.4145 44.6971 25.6414 44.8183C25.8683 44.9394 26.1239 44.9967 26.3808 44.9841C26.6378 44.9715 26.8865 44.8894 27.1004 44.7467L44.448 33.184C44.6423 33.0536 44.8016 32.8774 44.9117 32.6709C45.0218 32.4644 45.0794 32.234 45.0794 32C45.0794 31.766 45.0218 31.5356 44.9117 31.3291C44.8016 31.1226 44.6423 30.9464 44.448 30.816L27.1004 19.2533Z" fill="#D30E15"/>
</svg>
