<svg width="17" height="23" viewBox="0 0 17 23" fill="none" xmlns="http://www.w3.org/2000/svg">
<path d="M14.1675 3.21133C12.7422 1.78635 10.8395 0.939858 8.82673 0.835221C6.81396 0.730584 4.83378 1.37522 3.26836 2.64472C1.70295 3.91422 0.663261 5.71859 0.349971 7.70957C0.0366819 9.70055 0.471997 11.737 1.5719 13.4259L7.23942 22.1265C7.36554 22.3201 7.53799 22.4792 7.74113 22.5893C7.94427 22.6994 8.17167 22.7571 8.40274 22.7571C8.6338 22.7571 8.86121 22.6994 9.06435 22.5893C9.26749 22.4792 9.43993 22.3201 9.56606 22.1265L15.2338 13.4259C16.2543 11.8592 16.7054 9.98931 16.5112 8.12962C16.3171 6.26993 15.4896 4.53348 14.1675 3.21133ZM13.9769 12.6071L8.40276 21.1642L2.82853 12.6071C1.12227 9.98782 1.48823 6.48251 3.69867 4.27198C4.31641 3.65421 5.04978 3.16418 5.85691 2.82985C6.66405 2.49552 7.52913 2.32344 8.40276 2.32344C9.27639 2.32344 10.1415 2.49552 10.9486 2.82985C11.7557 3.16418 12.4891 3.65421 13.1069 4.27198C15.3173 6.48251 15.6832 9.98782 13.9769 12.6071Z" fill="#D30E15"/>
</svg>
