<svg width="16" height="16" viewBox="0 0 16 16" fill="none" xmlns="http://www.w3.org/2000/svg">
<path d="M14.0661 1.3335C14.4769 1.3335 14.7869 1.7631 14.6211 2.56216L12.61 13.8607C12.4694 14.664 12.0621 14.8573 11.4999 14.4836L6.70272 10.2606C6.68412 10.2447 6.66896 10.2237 6.65851 10.1995C6.64805 10.1752 6.6426 10.1483 6.6426 10.121C6.6426 10.0937 6.64805 10.0668 6.65851 10.0425C6.66896 10.0182 6.68412 9.99728 6.70272 9.98137L12.2424 4.0185C12.4946 3.75215 12.1883 3.62327 11.8567 3.86385L4.90423 9.09209C4.88315 9.10848 4.85921 9.11894 4.83423 9.12266C4.80925 9.12638 4.78389 9.12327 4.76007 9.11357L1.80824 8.00091C1.15228 7.77322 1.15228 7.23622 1.95601 6.85387L13.7669 1.42371C13.8606 1.37015 13.9623 1.33948 14.0661 1.3335V1.3335Z" stroke="#D30E15" stroke-linecap="round" stroke-linejoin="round"/>
</svg>
