<svg width="28" height="28" viewBox="0 0 28 28" fill="none" xmlns="http://www.w3.org/2000/svg">
<circle cx="14" cy="14" r="13.5" stroke="white"/>
<path d="M20 10.1838C19.5584 10.3838 19.0844 10.5213 18.5864 10.5813C19.0952 10.2688 19.484 9.77376 19.6688 9.18501C19.184 9.47934 18.6549 9.68641 18.104 9.79751C17.8723 9.54448 17.5935 9.34327 17.2846 9.20616C16.9758 9.06905 16.6433 8.99891 16.3076 9.00001C14.948 9.00001 13.8464 10.1313 13.8464 11.525C13.8464 11.7225 13.868 11.915 13.91 12.1C12.9348 12.0518 11.9799 11.7923 11.1064 11.3382C10.2328 10.8841 9.45971 10.2453 8.8364 9.46251C8.61748 9.84639 8.50221 10.2848 8.5028 10.7313C8.5028 11.6063 8.9384 12.3813 9.5984 12.8325C9.20773 12.8197 8.82543 12.7114 8.4824 12.5163V12.5475C8.48611 13.1343 8.68496 13.7017 9.0451 14.1529C9.40524 14.6042 9.9044 14.9115 10.4576 15.0225C10.0944 15.1225 9.71443 15.137 9.3452 15.065C9.50615 15.5698 9.81401 16.0099 10.226 16.3242C10.638 16.6385 11.1338 16.8113 11.6444 16.8187C10.7684 17.5219 9.69277 17.9019 8.5868 17.8987C8.3888 17.8987 8.1932 17.8862 8 17.8637C9.12857 18.6079 10.4372 19.002 11.7728 19C16.3016 19 18.7772 15.1525 18.7772 11.815L18.7688 11.4875C19.2516 11.1341 19.6687 10.6924 20 10.1838Z" fill="white"/>
</svg>
