<svg width="8" height="9" viewBox="0 0 8 9" fill="none" xmlns="http://www.w3.org/2000/svg">
<g clip-path="url(#clip0_1_287)">
<path d="M4 0.5C4.1692 0.5 4.3064 0.6372 4.3064 0.8064V4.1932H7.6936C7.77492 4.1932 7.8529 4.2255 7.9104 4.283C7.9679 4.3405 8.0002 4.41848 8.0002 4.4998C8.0002 4.58112 7.9679 4.6591 7.9104 4.7166C7.8529 4.7741 7.77492 4.8064 7.6936 4.8064H4.3064V8.1936C4.3064 8.27486 4.27412 8.3528 4.21666 8.41026C4.1592 8.46772 4.08126 8.5 4 8.5C3.91874 8.5 3.8408 8.46772 3.78334 8.41026C3.72588 8.3528 3.6936 8.27486 3.6936 8.1936L3.6932 4.8064H0.3064C0.225138 4.8064 0.147204 4.77412 0.0897425 4.71666C0.0322813 4.6592 0 4.58126 0 4.5C0 4.41874 0.0322813 4.3408 0.0897425 4.28334C0.147204 4.22588 0.225138 4.1936 0.3064 4.1936L3.6932 4.1932V0.8064C3.69341 0.725133 3.72582 0.647262 3.78332 0.589835C3.84082 0.532408 3.91873 0.500106 4 0.5Z" fill="black"/>
</g>
<defs>
<clipPath id="clip0_1_287">
<rect width="8" height="8" fill="white" transform="translate(0 0.5)"/>
</clipPath>
</defs>
</svg>
