<svg width="16" height="16" viewBox="0 0 16 16" fill="none" xmlns="http://www.w3.org/2000/svg">
<path d="M8 0C8.3384 0 8.6128 0.2744 8.6128 0.6128V7.3864H15.3872C15.5498 7.3864 15.7058 7.451 15.8208 7.566C15.9358 7.681 16.0004 7.83697 16.0004 7.9996C16.0004 8.16223 15.9358 8.3182 15.8208 8.4332C15.7058 8.54819 15.5498 8.6128 15.3872 8.6128H8.6128V15.3872C8.6128 15.5497 8.54824 15.7056 8.43332 15.8205C8.31839 15.9354 8.16253 16 8 16C7.83748 16 7.68161 15.9354 7.56668 15.8205C7.45176 15.7056 7.3872 15.5497 7.3872 15.3872L7.3864 8.6128H0.6128C0.450275 8.6128 0.294407 8.54824 0.179485 8.43332C0.0645627 8.31839 0 8.16253 0 8C0 7.83748 0.0645627 7.68161 0.179485 7.56668C0.294407 7.45176 0.450275 7.3872 0.6128 7.3872L7.3864 7.3864V0.6128C7.38682 0.450267 7.45163 0.294523 7.56664 0.17967C7.68164 0.0648161 7.83747 0.000211082 8 0Z" fill="black"/>
</svg>
