<svg width="25" height="24" viewBox="0 0 25 24" fill="none" xmlns="http://www.w3.org/2000/svg">
<path d="M6.86885 0.127125L5.45942 0.451217C4.20445 0.740092 3.08371 1.2966 2.2291 2.05523C1.3745 2.81386 0.82161 3.74305 0.635499 4.73343C0.0516752 7.83631 1.35692 11.4643 4.50407 15.625C7.64335 19.7752 11.0991 22.449 14.9028 23.6193C16.125 23.9953 17.4629 24.0954 18.7574 23.9079C20.052 23.7204 21.2488 23.2531 22.2055 22.5615L23.271 21.7903C23.9628 21.2905 24.3934 20.616 24.4827 19.8921C24.572 19.1682 24.3139 18.4442 23.7565 17.8547L21.091 15.0339C20.7306 14.653 20.2231 14.3678 19.6397 14.2182C19.0563 14.0686 18.4262 14.0621 17.8377 14.1996L13.8059 15.1404L13.7017 15.1554C13.2575 15.2049 12.2314 14.4712 10.9536 12.7817C9.61695 11.0142 9.34175 9.98042 9.70934 9.71334L11.7596 8.25343C12.5094 7.71997 13.0215 7.02074 13.2242 6.25384C13.4269 5.48694 13.31 4.69083 12.8899 3.97722L11.5886 1.77009C11.1973 1.10592 10.5029 0.573019 9.63489 0.270734C8.76688 -0.0315498 7.78448 -0.0825913 6.87082 0.127125H6.86885ZM9.7978 2.38527L11.0952 4.59239C11.3479 5.02036 11.4185 5.498 11.2972 5.95819C11.1759 6.41839 10.8688 6.83802 10.419 7.15812L8.36281 8.61953C7.04773 9.5708 7.48412 11.1943 9.25329 13.5319C10.9163 15.7316 12.4338 16.8179 14.0654 16.6288L14.3092 16.5898L18.4136 15.634C18.6098 15.588 18.8199 15.5901 19.0145 15.6398C19.2092 15.6896 19.3785 15.7847 19.4987 15.9116L22.1642 18.7324C22.4434 19.0272 22.5727 19.3893 22.5282 19.7514C22.4838 20.1135 22.2685 20.4509 21.9225 20.701L20.8551 21.4722C20.1717 21.9659 19.317 22.2994 18.3925 22.4332C17.468 22.567 16.5127 22.4954 15.64 22.2269C12.3021 21.2006 9.14714 18.7594 6.20836 14.8748C3.26172 10.9812 2.06852 7.66976 2.58158 4.94649C2.71439 4.23894 3.10929 3.57507 3.71978 3.03307C4.33027 2.49106 5.13094 2.09348 6.02751 1.88712L7.43695 1.56303C7.8939 1.45823 8.38519 1.48385 8.81921 1.63514C9.25323 1.78643 9.60035 2.05304 9.79583 2.38527H9.7978Z" fill="#D30E15"/>
</svg>
