<svg width="16" height="12" viewBox="0 0 16 12" fill="none" xmlns="http://www.w3.org/2000/svg">
<path d="M14.3707 2.33454C14.2947 2.01146 14.1459 1.71689 13.9393 1.48031C13.7326 1.24372 13.4752 1.07344 13.193 0.986484C12.4217 0.645367 4.94906 0.478243 2.78107 0.996023C2.49879 1.08301 2.24142 1.25335 2.03474 1.49001C1.82806 1.72666 1.67932 2.02131 1.60341 2.34446C1.25508 4.09316 1.22874 7.87368 1.61207 9.66168C1.68804 9.98476 1.8368 10.2793 2.04348 10.5159C2.25015 10.7525 2.50749 10.9228 2.78973 11.0097C4.31739 11.4123 11.58 11.4688 13.2017 11.0097C13.4839 10.9228 13.7413 10.7525 13.9479 10.5159C14.1546 10.2793 14.3034 9.98476 14.3793 9.66168C14.7507 7.75654 14.777 4.2103 14.3707 2.33454V2.33454Z" stroke="#D30E15" stroke-linecap="round" stroke-linejoin="round"/>
<path d="M10.189 5.99688L6.70673 3.71094V8.28281L10.189 5.99688Z" stroke="#D30E15" stroke-linecap="round" stroke-linejoin="round"/>
</svg>
